Coordinates
version=1
nRows=18
nColumns=19
inDegrees=yes

Units are S.I. units (second, meters, Newtons, ...)
If the header above contains a line with 'inDegrees', this indicates whether rotational values are in degrees (yes) or radians (no).

endheader
time	pelvis_tilt	pelvis_list	pelvis_rotation	pelvis_tx	pelvis_ty	pelvis_tz	hip_flexion_r	hip_adduction_r	hip_rotation_r	knee_angle_r	knee_angle_r_beta	ankle_angle_r	hip_flexion_l	hip_adduction_l	hip_rotation_l	knee_angle_l	knee_angle_l_beta	ankle_angle_l
     14.92000000	     -3.05078066	     -6.84255062	     -1.50817565	      2.28326979	      0.94980836	      1.00452703	     25.92439300	      8.71019110	     -6.49527642	     21.24350282	      0.37076907	      0.30404659	     -9.53375655	     -9.08074653	     -5.95112147	     68.61442884	      1.19754770	    -21.17549360
     14.92666667	     -2.21856226	     -7.27295815	     -1.90153996	      2.28253058	      0.94529005	      1.00490204	     25.47338191	      9.09757446	     -7.00958371	     24.29124487	      0.42396220	      1.69736821	     -9.00917498	     -9.48320403	     -5.85497426	     72.18982706	      1.25995017	    -20.70187345
     14.93333333	     -2.14479186	     -7.31641878	     -2.23555246	      2.28135811	      0.93983805	      1.00509849	     25.91235664	      9.04718108	     -7.31183821	     27.68602980	      0.48321238	      3.47175139	     -7.39616779	     -9.39334008	     -5.32606051	     75.89945506	      1.32469539	    -20.15584251
     14.94000000	     -1.77729182	     -7.39657584	     -2.57524678	      2.28001561	      0.93470678	      1.00520447	     25.88850083	      9.09478728	     -7.30601473	     30.98488425	      0.54078825	      5.53934313	     -6.05876560	     -9.33401822	     -4.87326106	     79.46739236	      1.38696764	    -19.54444746
     14.94666667	     -0.87842436	     -7.74274557	     -2.86848685	      2.27861504	      0.93028845	      1.00516476	     25.02450773	      9.47455550	     -7.07865941	     33.91921048	      0.59200190	      7.86148894	     -5.29592173	     -9.61646156	     -4.58354095	     82.83968619	      1.44582528	    -18.88175556
     14.95333333	     -1.19939428	     -7.27266176	     -3.12768084	      2.27659507	      0.92486943	      1.00510358	     25.57241178	      9.04608010	     -6.58010025	     37.08168529	      0.64719750	     10.23024033	     -2.84054085	     -8.84084617	     -3.69939081	     86.30301158	      1.50627171	    -18.11179816
     14.96000000	     -1.12916229	     -7.14624301	     -3.40010998	      2.27458220	      0.92023985	      1.00505685	     25.36478992	      9.05810201	     -5.94963589	     39.69007304	      0.69272245	     12.64662658	     -0.83576869	     -8.55638704	     -3.09979153	     89.53486050	      1.56267811	    -17.26065710
     14.96666667	     -0.55707664	     -7.18402558	     -3.58217683	      2.27255623	      0.91671528	      1.00494682	     24.29486537	      9.25235685	     -5.27729352	     41.74589710	      0.72860335	     15.08419349	      0.63772949	     -8.50106094	     -2.57138869	     92.46941959	      1.61389583	    -16.40001297
     14.97333333	     -0.99148737	     -6.68574690	     -3.73041117	      2.27018064	      0.91266504	      1.00483121	     24.26075067	      8.89602832	     -4.57008781	     43.69984245	      0.76270613	     17.40665162	      3.48406667	     -7.81160408	     -1.78068667	     95.34206955	      1.66403303	    -15.58152882
     14.98000000	     -1.05913059	     -6.42655122	     -3.84958251	      2.26804747	      0.90965187	      1.00474950	     23.48020627	      8.78570557	     -3.89561452	     45.03942041	      0.78608618	     19.56906061	      5.87531449	     -7.46393140	     -1.14881407	     97.86620589	      1.70808752	    -14.69856012
     14.98666667	     -0.56676432	     -6.32096438	     -4.01379196	      2.26592527	      0.90800533	      1.00478965	     21.78441114	      8.85291801	     -3.09158546	     45.81589142	      0.79963816	     21.37532161	      7.61591584	     -7.33841893	     -0.71351412	     99.99073824	      1.74516760	    -13.97235266
     14.99333333	     -1.16104175	     -5.73659289	     -3.91262756	      2.26400442	      0.90568265	      1.00464399	     21.16239638	      8.26695649	     -2.72397833	     46.40796969	      0.80997187	     23.31951919	     10.73774448	     -6.66884942	      0.03832423	    101.96862825	      1.77968830	    -12.98161946
     15.00000000	     -0.92124975	     -5.43154712	     -4.05909254	      2.26223889	      0.90505657	      1.00490586	     19.30799360	      8.09790246	     -1.93189508	     46.40395319	      0.80990177	     24.72693931	     12.76796883	     -6.44027617	      0.32848456	    103.44319757	      1.80542439	    -12.22004975
     15.00666667	     -0.90825907	     -4.98974726	     -4.13741645	      2.26091283	      0.90485444	      1.00518871	     17.46878439	      7.71770501	     -1.27922963	     45.99867066	      0.80282825	     26.02414453	     15.00707239	     -6.09367384	      0.58992117	    104.55790484	      1.82487970	    -11.36856002
     15.01333333	     -1.37708827	     -4.32921551	     -3.86137741	      2.25969130	      0.90458212	      1.00514880	     16.10594110	      6.93819248	     -1.15784921	     45.45797465	      0.79339133	     26.99554795	     17.88788528	     -5.41533240	      1.13575409	    105.43805886	      1.84024128	    -10.59662677
     15.02000000	     -1.55753244	     -3.74574335	     -3.98783464	      2.25897224	      0.90542460	      1.00577489	     14.16014002	      6.39111865	     -0.53242690	     44.44507443	      0.77571289	     27.55307090	     20.18645983	     -5.09137844	      1.06571402	    105.81021856	      1.84673670	     -9.91099714
     15.02666667	     -1.81189642	     -3.08005158	     -4.01621767	      2.25853297	      0.90669712	      1.00636276	     12.18823219	      5.72692616	      0.01732684	     43.21213314	      0.75419400	     27.79793483	     22.49060363	     -4.69824239	      0.95429422	    105.83968876	      1.84725105	     -9.24472654
     15.03333333	     -2.12614234	     -2.34160386	     -4.01893114	      2.25843397	      0.90849773	      1.00699651	     10.17415768	      4.95642168	      0.49528809	     41.74084777	      0.72851523	     27.66250699	     24.74013392	     -4.22535772	      0.76947957	    105.51170709	      1.84152669	     -8.61568344
